<svg width="129" height="25" viewBox="0 0 129 25" fill="none" xmlns="http://www.w3.org/2000/svg">
<path fill-rule="evenodd" clip-rule="evenodd" d="M57.3101 0H62.8712V11.2912H63.8664L68.4616 5.76923H71.7397L67.9933 10.5769L73.408 19.5055H67.0567L63.8371 13.956H62.8712V19.5055H57.3101V0ZM20.2584 18.7912C21.1365 19.4506 22.3463 19.7802 23.8878 19.7802C25.039 19.7802 26.0439 19.5879 26.9025 19.2033C27.7805 18.8187 28.483 18.2418 29.0098 17.4725V19.5055H35.449V16.9506H34.0441V11.2637C34.0441 10.0916 33.7611 9.07509 33.1953 8.21429C32.6489 7.33516 31.8782 6.66667 30.883 6.20879C29.8879 5.7326 28.7464 5.49451 27.4586 5.49451C26.2098 5.49451 25.078 5.70513 24.0634 6.12637C23.0487 6.54762 22.2292 7.15201 21.6048 7.93956C20.9804 8.70879 20.5999 9.61538 20.4633 10.6593H23.3317C23.4682 9.87179 23.8292 9.23993 24.4146 8.76374C25.0195 8.28755 25.7219 8.04945 26.522 8.04945C27.1854 8.04945 27.722 8.19597 28.1318 8.48901C28.5415 8.78205 28.7464 9.22161 28.7464 9.80769C28.7464 10.4304 28.4732 10.9158 27.9269 11.2637C27.4 11.5934 26.5122 11.804 25.2634 11.8956C23.8585 12.0055 22.6877 12.2344 21.7511 12.5824C20.834 12.9121 20.1413 13.37 19.673 13.956C19.2047 14.5421 18.9706 15.2473 18.9706 16.0714C18.9706 17.207 19.3999 18.1136 20.2584 18.7912ZM27.2537 16.7857C26.8049 17.0788 26.3464 17.2253 25.878 17.2253C25.5073 17.2253 25.2049 17.0879 24.9707 16.8132C24.7561 16.5201 24.6488 16.0989 24.6488 15.5494C24.6488 14.9084 24.8049 14.4048 25.1171 14.0385C25.4488 13.6722 26.0049 13.4066 26.7854 13.2418H26.8732C26.8927 13.2234 26.922 13.2143 26.961 13.2143C27.3513 13.1227 27.7122 13.0037 28.044 12.8571C28.3952 12.6923 28.6488 12.5366 28.8049 12.3901V13.6264C28.8049 14.3223 28.6586 14.9451 28.3659 15.4945C28.0732 16.044 27.7025 16.4744 27.2537 16.7857ZM43.5492 5.76923H37.9881V19.5055H43.5492V13.956H47.6468V19.5055H53.2079V5.76923H47.6468V11.2912H43.5492V5.76923ZM77.7317 18.8736C79 19.478 80.4342 19.7802 82.0342 19.7802C83.6343 19.7802 85.0685 19.478 86.3368 18.8736C87.6051 18.2692 88.5905 17.4267 89.2929 16.3462C90.0149 15.2473 90.3759 14.011 90.3759 12.6374C90.3759 11.2637 90.0149 10.0366 89.2929 8.95604C88.5905 7.85714 87.6051 7.00549 86.3368 6.4011C85.0685 5.7967 83.6343 5.49451 82.0342 5.49451C80.4342 5.49451 79 5.7967 77.7317 6.4011C76.4634 7.00549 75.4683 7.85714 74.7463 8.95604C74.0438 10.0366 73.6926 11.2637 73.6926 12.6374C73.6926 14.011 74.0438 15.2473 74.7463 16.3462C75.4683 17.4267 76.4634 18.2692 77.7317 18.8736ZM83.4684 16.6758C83.0782 17.0055 82.6001 17.1703 82.0342 17.1703C81.4684 17.1703 80.9903 17.0055 80.6001 16.6758C80.2098 16.3278 79.9074 15.815 79.6927 15.1374C79.4976 14.4597 79.4 13.6264 79.4 12.6374C79.4 11.6484 79.4976 10.815 79.6927 10.1374C79.9074 9.45971 80.2098 8.95604 80.6001 8.62637C80.9903 8.27839 81.4684 8.1044 82.0342 8.1044C82.6001 8.1044 83.0782 8.27839 83.4684 8.62637C83.8587 8.95604 84.1514 9.45971 84.3465 10.1374C84.5611 10.815 84.6684 11.6484 84.6684 12.6374C84.6684 13.6264 84.5611 14.4597 84.3465 15.1374C84.1514 15.815 83.8587 16.3278 83.4684 16.6758ZM93.4388 5.76923H98.7658V7.52747C99.2145 6.84982 99.7804 6.34615 100.463 6.01648C101.166 5.6685 101.956 5.49451 102.834 5.49451C104.141 5.49451 105.312 5.7967 106.346 6.4011C107.381 6.98718 108.19 7.82051 108.776 8.9011C109.361 9.98168 109.654 11.2271 109.654 12.6374C109.654 14.0476 109.361 15.293 108.776 16.3736C108.19 17.4542 107.381 18.2967 106.346 18.9011C105.312 19.4872 104.141 19.7802 102.834 19.7802C102.015 19.7802 101.273 19.6245 100.61 19.3132C99.9658 19.0018 99.4292 18.5348 98.9999 17.9121V25H93.4388V5.76923ZM101.576 16.8681C102.044 16.8681 102.454 16.7216 102.805 16.4286C103.176 16.1355 103.459 15.6777 103.654 15.0549C103.849 14.4139 103.946 13.6081 103.946 12.6374C103.946 11.6667 103.849 10.87 103.654 10.2473C103.459 9.60623 103.176 9.13919 102.805 8.84615C102.454 8.55311 102.044 8.40659 101.576 8.40659C101.049 8.40659 100.571 8.5989 100.141 8.98352C99.7316 9.34982 99.4097 9.85348 99.1755 10.4945C98.9414 11.1355 98.8243 11.8498 98.8243 12.6374C98.8243 13.4249 98.9414 14.1392 99.1755 14.7802C99.4097 15.4212 99.7316 15.9341 100.141 16.3187C100.571 16.685 101.049 16.8681 101.576 16.8681ZM3.83263 8.72329L0 12.3207L3.83263 15.9181L7.66526 12.3207L3.83263 8.72329ZM11.5796 12.3207L7.74699 15.9181L9.66329 17.7168L13.4959 14.1194L15.4122 12.3207L13.4959 10.522L9.66329 6.9246L7.74699 8.72329L11.5796 12.3207ZM129 12.3207L125.167 15.9181L121.335 12.3207L125.167 8.72329L129 12.3207ZM119.337 6.92455L121.253 8.72324L117.42 12.3207L121.253 15.9181L119.337 17.7168L115.504 14.1194L113.588 12.3207L115.504 10.5219L119.337 6.92455Z" fill="#D6D6D6"/>
</svg>
