<svg width="38" height="12" viewBox="0 0 38 12" fill="none" xmlns="http://www.w3.org/2000/svg">
<path fill-rule="evenodd" clip-rule="evenodd" d="M13.936 11.1692C14.54 11.7231 15.3722 12 16.4326 12C17.2246 12 17.9159 11.8385 18.5065 11.5154C19.1106 11.1923 19.5938 10.7077 19.9562 10.0615V11.7692H24.3858V9.62307H23.4193V4.84616C23.4193 3.86154 23.2247 3.0077 22.8354 2.28462C22.4596 1.54617 21.9293 0.984622 21.2448 0.599995C20.5602 0.200007 19.775 0 18.8891 0C18.03 0 17.2515 0.176924 16.5535 0.530771C15.8555 0.884618 15.2917 1.39231 14.8622 2.05386C14.4326 2.69999 14.1709 3.46155 14.0769 4.33847H16.0501C16.1441 3.67692 16.3924 3.14615 16.7951 2.74616C17.2112 2.34615 17.6944 2.14617 18.2447 2.14617C18.7011 2.14617 19.0703 2.26923 19.3521 2.51537C19.634 2.76155 19.775 3.13076 19.775 3.62308C19.775 4.14616 19.5871 4.55385 19.2112 4.84616C18.8488 5.12309 18.2381 5.30001 17.379 5.37693C16.4125 5.46922 15.6072 5.66155 14.9628 5.95385C14.332 6.23078 13.8554 6.61538 13.5333 7.10771C13.2111 7.59998 13.0501 8.19234 13.0501 8.88464C13.0501 9.83847 13.3454 10.6 13.936 11.1692ZM18.7481 9.48464C18.4394 9.73075 18.124 9.85385 17.8018 9.85385C17.5468 9.85385 17.3387 9.73849 17.1776 9.50766C17.03 9.26155 16.9562 8.90771 16.9562 8.44615C16.9562 7.90767 17.0635 7.48462 17.2783 7.17693C17.5065 6.86924 17.8891 6.64615 18.426 6.50771H18.4863C18.4998 6.49233 18.5199 6.48464 18.5468 6.48464C18.8152 6.40767 19.0635 6.30769 19.2918 6.18458C19.5334 6.04615 19.7078 5.9154 19.8152 5.79229V6.83078C19.8152 7.4154 19.7146 7.93844 19.5132 8.4C19.3119 8.86156 19.0568 9.22309 18.7481 9.48464ZM2.63651 2.71217L0 5.73398L2.63651 8.7558L5.273 5.73398L2.63651 2.71217ZM7.96575 5.73398L5.32922 8.7558L6.64751 10.2667L9.28403 7.24495L10.6023 5.73398L9.28403 4.22308L6.64751 1.20127L5.32922 2.71217L7.96575 5.73398ZM37.6694 5.73398L35.0329 8.7558L32.3964 5.73398L35.0329 2.71217L37.6694 5.73398ZM31.0219 1.20124L32.3402 2.71215L29.7037 5.73398L32.3402 8.7558L31.0219 10.2667L28.3854 7.24489L27.0671 5.73398L28.3854 4.22306L31.0219 1.20124Z" fill="#DCDCDC"/>
</svg>
