<svg width="119" height="25" viewBox="0 0 119 25" fill="none" xmlns="http://www.w3.org/2000/svg">
<path fill-rule="evenodd" clip-rule="evenodd" d="M52.8675 0H57.9975V11.2912H58.9155L63.1545 5.76923H66.1785L62.7225 10.5769L67.7175 19.5055H61.8585L58.8885 13.956H57.9975V19.5055H52.8675V0ZM18.688 18.7912C19.498 19.4506 20.614 19.7802 22.036 19.7802C23.098 19.7802 24.025 19.5879 24.817 19.2033C25.627 18.8187 26.275 18.2418 26.761 17.4725V19.5055H32.701V16.9506H31.405V11.2637C31.405 10.0916 31.144 9.07509 30.622 8.21429C30.118 7.33516 29.407 6.66667 28.489 6.20879C27.571 5.7326 26.518 5.49451 25.33 5.49451C24.178 5.49451 23.134 5.70513 22.198 6.12637C21.262 6.54762 20.506 7.15201 19.93 7.93956C19.354 8.70879 19.003 9.61538 18.877 10.6593H21.523C21.649 9.87179 21.982 9.23993 22.522 8.76374C23.08 8.28755 23.728 8.04945 24.466 8.04945C25.078 8.04945 25.573 8.19597 25.951 8.48901C26.329 8.78205 26.518 9.22161 26.518 9.80769C26.518 10.4304 26.266 10.9158 25.762 11.2637C25.276 11.5934 24.457 11.804 23.305 11.8956C22.009 12.0055 20.929 12.2344 20.065 12.5824C19.219 12.9121 18.58 13.37 18.148 13.956C17.716 14.5421 17.5 15.2473 17.5 16.0714C17.5 17.207 17.896 18.1136 18.688 18.7912ZM25.141 16.7857C24.727 17.0788 24.304 17.2253 23.872 17.2253C23.53 17.2253 23.251 17.0879 23.035 16.8132C22.837 16.5201 22.738 16.0989 22.738 15.5494C22.738 14.9084 22.882 14.4048 23.17 14.0385C23.476 13.6722 23.989 13.4066 24.709 13.2418H24.79C24.808 13.2234 24.835 13.2143 24.871 13.2143C25.231 13.1227 25.564 13.0037 25.87 12.8571C26.194 12.6923 26.428 12.5366 26.572 12.3901V13.6264C26.572 14.3223 26.437 14.9451 26.167 15.4945C25.897 16.044 25.555 16.4744 25.141 16.7857ZM40.1732 5.76923H35.0433V19.5055H40.1732V13.956H43.9533V19.5055H49.0832V5.76923H43.9533V11.2912H40.1732V5.76923ZM71.706 18.8736C72.876 19.478 74.199 19.7802 75.675 19.7802C77.151 19.7802 78.474 19.478 79.644 18.8736C80.814 18.2692 81.723 17.4267 82.371 16.3462C83.037 15.2473 83.37 14.011 83.37 12.6374C83.37 11.2637 83.037 10.0366 82.371 8.95604C81.723 7.85714 80.814 7.00549 79.644 6.4011C78.474 5.7967 77.151 5.49451 75.675 5.49451C74.199 5.49451 72.876 5.7967 71.706 6.4011C70.536 7.00549 69.618 7.85714 68.952 8.95604C68.304 10.0366 67.98 11.2637 67.98 12.6374C67.98 14.011 68.304 15.2473 68.952 16.3462C69.618 17.4267 70.536 18.2692 71.706 18.8736ZM76.998 16.6758C76.638 17.0055 76.197 17.1703 75.675 17.1703C75.153 17.1703 74.712 17.0055 74.352 16.6758C73.992 16.3278 73.713 15.815 73.515 15.1374C73.335 14.4597 73.245 13.6264 73.245 12.6374C73.245 11.6484 73.335 10.815 73.515 10.1374C73.713 9.45971 73.992 8.95604 74.352 8.62637C74.712 8.27839 75.153 8.1044 75.675 8.1044C76.197 8.1044 76.638 8.27839 76.998 8.62637C77.358 8.95604 77.628 9.45971 77.808 10.1374C78.006 10.815 78.105 11.6484 78.105 12.6374C78.105 13.6264 78.006 14.4597 77.808 15.1374C77.628 15.815 77.358 16.3278 76.998 16.6758ZM86.1955 5.76923H91.1095V7.52747C91.5235 6.84982 92.0455 6.34615 92.6755 6.01648C93.3235 5.6685 94.0525 5.49451 94.8625 5.49451C96.0685 5.49451 97.1485 5.7967 98.1025 6.4011C99.0565 6.98718 99.8035 7.82051 100.343 8.9011C100.883 9.98168 101.154 11.2271 101.154 12.6374C101.154 14.0476 100.883 15.293 100.343 16.3736C99.8035 17.4542 99.0565 18.2967 98.1025 18.9011C97.1485 19.4872 96.0685 19.7802 94.8625 19.7802C94.1065 19.7802 93.4225 19.6245 92.8105 19.3132C92.2165 19.0018 91.7215 18.5348 91.3255 17.9121V25H86.1955V5.76923ZM93.7015 16.8681C94.1335 16.8681 94.5115 16.7216 94.8355 16.4286C95.1775 16.1355 95.4385 15.6777 95.6185 15.0549C95.7985 14.4139 95.8885 13.6081 95.8885 12.6374C95.8885 11.6667 95.7985 10.87 95.6185 10.2473C95.4385 9.60623 95.1775 9.13919 94.8355 8.84615C94.5115 8.55311 94.1335 8.40659 93.7015 8.40659C93.2155 8.40659 92.7745 8.5989 92.3785 8.98352C92.0005 9.34982 91.7035 9.85348 91.4875 10.4945C91.2715 11.1355 91.1635 11.8498 91.1635 12.6374C91.1635 13.4249 91.2715 14.1392 91.4875 14.7802C91.7035 15.4212 92.0005 15.9341 92.3785 16.3187C92.7745 16.685 93.2155 16.8681 93.7015 16.8681ZM3.53553 8.72329L0 12.3207L3.53553 15.9181L7.07105 12.3207L3.53553 8.72329ZM10.682 12.3207L7.14645 15.9181L8.9142 17.7168L12.4497 14.1194L14.2175 12.3207L12.4497 10.522L8.9142 6.9246L7.14645 8.72329L10.682 12.3207ZM119 12.3207L115.465 15.9181L111.929 12.3207L115.465 8.72329L119 12.3207ZM110.086 6.92455L111.854 8.72324L108.318 12.3207L111.854 15.9181L110.086 17.7168L106.55 14.1194L104.783 12.3207L106.55 10.5219L110.086 6.92455Z" fill="white"/>
</svg>
