<svg width="81" height="17" viewBox="0 0 81 17" fill="none" xmlns="http://www.w3.org/2000/svg">
<path fill-rule="evenodd" clip-rule="evenodd" d="M35.9854 0H39.4773V7.67802H40.1021L42.9875 3.92308H45.0459L42.6935 7.19231L46.0934 13.2637H42.1054L40.0838 9.49011H39.4773V13.2637H35.9854V0ZM12.7204 12.778C13.2717 13.2264 14.0314 13.4506 14.9993 13.4506C15.7222 13.4506 16.3532 13.3198 16.8922 13.0582C17.4436 12.7967 17.8847 12.4044 18.2155 11.8813V13.2637H22.2587V11.5264H21.3765V7.65934C21.3765 6.86227 21.1989 6.17106 20.8435 5.58571C20.5005 4.98791 20.0165 4.53333 19.3917 4.22198C18.7668 3.89817 18.0501 3.73626 17.2414 3.73626C16.4573 3.73626 15.7467 3.87949 15.1096 4.16593C14.4725 4.45238 13.9579 4.86337 13.5658 5.3989C13.1737 5.92198 12.9348 6.53846 12.8491 7.24835H14.6501C14.7359 6.71282 14.9625 6.28315 15.3301 5.95934C15.7099 5.63553 16.151 5.47363 16.6533 5.47363C17.0699 5.47363 17.4068 5.57326 17.6641 5.77253C17.9214 5.9718 18.0501 6.2707 18.0501 6.66923C18.0501 7.09267 17.8785 7.42271 17.5355 7.65934C17.2047 7.88352 16.6472 8.02674 15.8631 8.08901C14.9809 8.16374 14.2458 8.31941 13.6577 8.55604C13.0818 8.78022 12.6469 9.09158 12.3528 9.49011C12.0588 9.88865 11.9118 10.3681 11.9118 10.9286C11.9118 11.7007 12.1813 12.3172 12.7204 12.778ZM17.1128 11.4143C16.831 11.6136 16.5431 11.7132 16.249 11.7132C16.0162 11.7132 15.8263 11.6198 15.6793 11.433C15.5445 11.2337 15.4771 10.9473 15.4771 10.5736C15.4771 10.1377 15.5751 9.79524 15.7712 9.54615C15.9795 9.29707 16.3286 9.11648 16.8187 9.0044H16.8739C16.8861 8.99194 16.9045 8.98571 16.929 8.98571C17.174 8.92344 17.4007 8.84249 17.609 8.74286C17.8295 8.63077 17.9888 8.52491 18.0868 8.42527V9.26593C18.0868 9.73919 17.9949 10.1626 17.8112 10.5363C17.6274 10.9099 17.3946 11.2026 17.1128 11.4143ZM27.3448 3.92308H23.853V13.2637H27.3448V9.49011H29.9178V13.2637H33.4096V3.92308H29.9178V7.67802H27.3448V3.92308ZM48.8083 12.8341C49.6047 13.2451 50.5052 13.4506 51.5099 13.4506C52.5145 13.4506 53.4151 13.2451 54.2115 12.8341C55.0078 12.4231 55.6266 11.8502 56.0677 11.1154C56.521 10.3681 56.7477 9.52747 56.7477 8.59341C56.7477 7.65934 56.521 6.82491 56.0677 6.09011C55.6266 5.34286 55.0078 4.76374 54.2115 4.35275C53.4151 3.94176 52.5145 3.73626 51.5099 3.73626C50.5052 3.73626 49.6047 3.94176 48.8083 4.35275C48.0119 4.76374 47.387 5.34286 46.9337 6.09011C46.4926 6.82491 46.2721 7.65934 46.2721 8.59341C46.2721 9.52747 46.4926 10.3681 46.9337 11.1154C47.387 11.8502 48.0119 12.4231 48.8083 12.8341ZM52.4104 11.3396C52.1654 11.5637 51.8652 11.6758 51.5099 11.6758C51.1546 11.6758 50.8544 11.5637 50.6093 11.3396C50.3643 11.1029 50.1744 10.7542 50.0396 10.2934C49.9171 9.8326 49.8558 9.26593 49.8558 8.59341C49.8558 7.92088 49.9171 7.35421 50.0396 6.89341C50.1744 6.4326 50.3643 6.09011 50.6093 5.86593C50.8544 5.6293 51.1546 5.51099 51.5099 5.51099C51.8652 5.51099 52.1654 5.6293 52.4104 5.86593C52.6554 6.09011 52.8392 6.4326 52.9618 6.89341C53.0965 7.35421 53.1639 7.92088 53.1639 8.59341C53.1639 9.26593 53.0965 9.8326 52.9618 10.2934C52.8392 10.7542 52.6554 11.1029 52.4104 11.3396ZM58.6709 3.92308H62.0157V5.11868C62.2975 4.65788 62.6528 4.31538 63.0816 4.09121C63.5227 3.85458 64.0189 3.73626 64.5703 3.73626C65.3912 3.73626 66.1263 3.94176 66.7757 4.35275C67.425 4.75128 67.9335 5.31795 68.301 6.05275C68.6686 6.78755 68.8524 7.63443 68.8524 8.59341C68.8524 9.55238 68.6686 10.3993 68.301 11.1341C67.9335 11.8689 67.425 12.4418 66.7757 12.8527C66.1263 13.2513 65.3912 13.4506 64.5703 13.4506C64.0557 13.4506 63.5901 13.3447 63.1735 13.133C62.7692 12.9212 62.4323 12.6037 62.1627 12.1802V17H58.6709V3.92308ZM63.78 11.4703C64.0741 11.4703 64.3314 11.3707 64.5519 11.1714C64.7847 10.9722 64.9623 10.6608 65.0849 10.2374C65.2074 9.80147 65.2686 9.25348 65.2686 8.59341C65.2686 7.93333 65.2074 7.39158 65.0849 6.96813C64.9623 6.53223 64.7847 6.21465 64.5519 6.01539C64.3314 5.81612 64.0741 5.71648 63.78 5.71648C63.4492 5.71648 63.149 5.84725 62.8795 6.10879C62.6222 6.35788 62.42 6.70037 62.273 7.13626C62.126 7.57216 62.0525 8.05788 62.0525 8.59341C62.0525 9.12894 62.126 9.61465 62.273 10.0506C62.42 10.4864 62.6222 10.8352 62.8795 11.0967C63.149 11.3458 63.4492 11.4703 63.78 11.4703ZM2.40654 5.93184L0 8.37805L2.40654 10.8243L4.81307 8.37805L2.40654 5.93184ZM7.27094 8.37805L4.86439 10.8243L6.06765 12.0474L8.4742 9.6012L9.67746 8.37805L8.4742 7.15495L6.06765 4.70873L4.86439 5.93184L7.27094 8.37805ZM81 8.37805L78.5935 10.8243L76.187 8.37805L78.5935 5.93184L81 8.37805ZM74.9325 4.7087L76.1356 5.9318L73.7291 8.37805L76.1356 10.8243L74.9325 12.0474L72.5256 9.6012L71.3225 8.37805L72.5256 7.15491L74.9325 4.7087Z" fill="#808080"/>
</svg>
