<svg width="39" height="12" viewBox="0 0 39 12" fill="none" xmlns="http://www.w3.org/2000/svg">
<path id="Logo" fill-rule="evenodd" clip-rule="evenodd" d="M14.6633 11.1692C15.2673 11.7231 16.0995 12 17.1599 12C17.9519 12 18.6432 11.8385 19.2338 11.5154C19.8379 11.1923 20.3211 10.7077 20.6835 10.0615V11.7692H25.113V9.62307H24.1466V4.84616C24.1466 3.86154 23.952 3.0077 23.5627 2.28462C23.1869 1.54617 22.6566 0.984622 21.9721 0.599995C21.2875 0.200007 20.5023 0 19.6164 0C18.7573 0 17.9787 0.176924 17.2808 0.530771C16.5828 0.884618 16.019 1.39231 15.5895 2.05386C15.1599 2.69999 14.8982 3.46155 14.8042 4.33847H16.7774C16.8714 3.67692 17.1197 3.14615 17.5224 2.74616C17.9385 2.34615 18.4217 2.14617 18.972 2.14617C19.4284 2.14617 19.7976 2.26923 20.0794 2.51537C20.3613 2.76155 20.5023 3.13076 20.5023 3.62308C20.5023 4.14616 20.3143 4.55385 19.9385 4.84616C19.5761 5.12309 18.9654 5.30001 18.1063 5.37693C17.1398 5.46922 16.3345 5.66155 15.6901 5.95385C15.0593 6.23078 14.5827 6.61538 14.2606 7.10771C13.9384 7.59998 13.7774 8.19235 13.7774 8.88464C13.7774 9.83847 14.0727 10.6 14.6633 11.1692ZM19.4754 9.48464C19.1667 9.73075 18.8512 9.85385 18.5291 9.85385C18.274 9.85385 18.066 9.73849 17.9049 9.50766C17.7573 9.26155 17.6834 8.90771 17.6834 8.44615C17.6834 7.90767 17.7908 7.48462 18.0056 7.17693C18.2338 6.86924 18.6164 6.64615 19.1533 6.50771H19.2136C19.2271 6.49233 19.2472 6.48464 19.274 6.48464C19.5425 6.40767 19.7908 6.30769 20.019 6.18458C20.2607 6.04615 20.4351 5.9154 20.5425 5.79229V6.83078C20.5425 7.4154 20.4419 7.93844 20.2405 8.4C20.0392 8.86156 19.7841 9.22309 19.4754 9.48464ZM3.36381 2.71217L0.727295 5.73398L3.36381 8.7558L6.0003 5.73398L3.36381 2.71217ZM8.69304 5.73398L6.05652 8.7558L7.3748 10.2667L10.0113 7.24495L11.3296 5.73398L10.0113 4.22308L7.3748 1.20127L6.05652 2.71217L8.69304 5.73398ZM38.3967 5.73398L35.7602 8.7558L33.1237 5.73398L35.7602 2.71217L38.3967 5.73398ZM31.7492 1.20124L33.0675 2.71215L30.431 5.73398L33.0675 8.7558L31.7492 10.2667L29.1127 7.24489L27.7944 5.73398L29.1127 4.22306L31.7492 1.20124Z" fill="white"/>
</svg>
