<svg width="24" height="24" viewBox="0 0 24 24" fill="none" xmlns="http://www.w3.org/2000/svg">
<path d="M8.31034 12.1278C8.31034 10.0168 10.0223 8.30496 12.1346 8.30496C14.2469 8.30496 15.9597 10.0168 15.9597 12.1278C15.9597 14.2389 14.2469 15.9507 12.1346 15.9507C10.0223 15.9507 8.31034 14.2389 8.31034 12.1278ZM6.24254 12.1278C6.24254 15.38 8.8804 18.0163 12.1346 18.0163C15.3888 18.0163 18.0266 15.38 18.0266 12.1278C18.0266 8.87559 15.3888 6.23931 12.1346 6.23931C8.8804 6.23931 6.24254 8.87559 6.24254 12.1278ZM16.8829 6.00583C16.8828 6.278 16.9635 6.54409 17.1147 6.77045C17.2659 6.99682 17.4809 7.17328 17.7324 7.27754C17.984 7.38179 18.2608 7.40916 18.528 7.35617C18.7951 7.30317 19.0405 7.17221 19.2331 6.97983C19.4258 6.78746 19.557 6.54231 19.6103 6.27539C19.6635 6.00847 19.6363 5.73177 19.5322 5.48027C19.4281 5.22878 19.2517 5.01379 19.0253 4.86248C18.7989 4.71118 18.5328 4.63037 18.2604 4.63026H18.2599C17.8948 4.63043 17.5448 4.77539 17.2866 5.03331C17.0284 5.29123 16.8832 5.64101 16.8829 6.00583ZM7.49886 21.4622C6.38014 21.4113 5.77208 21.2251 5.36799 21.0677C4.83227 20.8593 4.45003 20.611 4.04815 20.21C3.64626 19.8089 3.39749 19.4272 3.18985 18.8918C3.03233 18.4882 2.84598 17.8803 2.79513 16.7622C2.7395 15.5534 2.72839 15.1903 2.72839 12.1279C2.72839 9.06549 2.74042 8.70339 2.79513 7.4936C2.84607 6.37555 3.0338 5.76886 3.18985 5.36401C3.39841 4.82861 3.64681 4.44659 4.04815 4.04495C4.44948 3.64331 4.83135 3.39469 5.36799 3.18717C5.7719 3.02974 6.38014 2.84351 7.49886 2.79268C8.70837 2.73709 9.0717 2.72599 12.1346 2.72599C15.1975 2.72599 15.5612 2.738 16.7717 2.79268C17.8904 2.8436 18.4974 3.03121 18.9025 3.18717C19.4383 3.39469 19.8205 3.64386 20.2224 4.04495C20.6243 4.44604 20.8721 4.82861 21.0807 5.36401C21.2382 5.76767 21.4246 6.37555 21.4754 7.4936C21.531 8.70339 21.5421 9.06549 21.5421 12.1279C21.5421 15.1903 21.531 15.5524 21.4754 16.7622C21.4245 17.8803 21.2372 18.488 21.0807 18.8918C20.8721 19.4272 20.6237 19.8092 20.2224 20.21C19.8211 20.6107 19.4383 20.8593 18.9025 21.0677C18.4986 21.2252 17.8904 21.4114 16.7717 21.4622C15.5622 21.5178 15.1988 21.5289 12.1346 21.5289C9.07032 21.5289 8.708 21.5178 7.49886 21.4622ZM7.40385 0.729604C6.18232 0.7852 5.34762 0.978774 4.61866 1.26225C3.86373 1.555 3.22464 1.94775 2.58601 2.58498C1.94739 3.22222 1.55542 3.86193 1.26249 4.61641C0.978843 5.34538 0.785153 6.17913 0.729524 7.39993C0.672977 8.62266 0.660034 9.01357 0.660034 12.1278C0.660034 15.2421 0.672977 15.633 0.729524 16.8557C0.785153 18.0766 0.978843 18.9103 1.26249 19.6392C1.55542 20.3933 1.94748 21.0337 2.58601 21.6707C3.22455 22.3076 3.86373 22.6998 4.61866 22.9934C5.34899 23.2769 6.18232 23.4704 7.40385 23.526C8.62796 23.5816 9.01846 23.5955 12.1346 23.5955C15.2507 23.5955 15.6418 23.5825 16.8653 23.526C18.0869 23.4704 18.9211 23.2769 19.6505 22.9934C20.405 22.6998 21.0445 22.3079 21.6831 21.6707C22.3218 21.0334 22.7129 20.3933 23.0067 19.6392C23.2903 18.9103 23.4849 18.0765 23.5396 16.8557C23.5953 15.6321 23.6082 15.2421 23.6082 12.1278C23.6082 9.01357 23.5953 8.62266 23.5396 7.39993C23.484 6.17904 23.2903 5.34493 23.0067 4.61641C22.7129 3.86239 22.3208 3.22322 21.6831 2.58498C21.0455 1.94674 20.405 1.555 19.6514 1.26225C18.9211 0.978774 18.0868 0.784282 16.8662 0.729604C15.6428 0.674009 15.2516 0.660156 12.1355 0.660156C9.01938 0.660156 8.62796 0.673092 7.40385 0.729604Z" fill="white"/>
</svg>
