<svg width="69" height="12" viewBox="0 0 69 12" fill="none" xmlns="http://www.w3.org/2000/svg">
<path d="M5.74 11.21C4.79733 11.21 3.934 10.986 3.15 10.538C2.366 10.09 1.75 9.474 1.302 8.69C0.854 7.906 0.63 7.04267 0.63 6.1C0.63 5.15733 0.854 4.294 1.302 3.51C1.75 2.726 2.366 2.11 3.15 1.662C3.934 1.214 4.79733 0.99 5.74 0.99C6.68267 0.99 7.546 1.214 8.33 1.662C9.114 2.11 9.73 2.726 10.178 3.51C10.626 4.294 10.85 5.15733 10.85 6.1C10.85 7.04267 10.626 7.906 10.178 8.69C9.73 9.474 9.114 10.09 8.33 10.538C7.546 10.986 6.68267 11.21 5.74 11.21ZM5.74 10.286C6.51467 10.286 7.21933 10.104 7.854 9.74C8.498 9.36667 9.00667 8.86267 9.38 8.228C9.75333 7.584 9.94 6.87467 9.94 6.1C9.94 5.32533 9.75333 4.62067 9.38 3.986C9.00667 3.342 8.498 2.83333 7.854 2.46C7.21933 2.08667 6.51467 1.9 5.74 1.9C4.96533 1.9 4.256 2.08667 3.612 2.46C2.97733 2.83333 2.47333 3.342 2.1 3.986C1.736 4.62067 1.554 5.32533 1.554 6.1C1.554 6.87467 1.736 7.584 2.1 8.228C2.47333 8.86267 2.97733 9.36667 3.612 9.74C4.256 10.104 4.96533 10.286 5.74 10.286ZM5.81 9.012C5.24067 9.012 4.72267 8.886 4.256 8.634C3.79867 8.382 3.43933 8.03667 3.178 7.598C2.91667 7.15 2.786 6.65067 2.786 6.1C2.786 5.54933 2.91667 5.05467 3.178 4.616C3.43933 4.168 3.79867 3.818 4.256 3.566C4.72267 3.314 5.24067 3.188 5.81 3.188C6.32333 3.188 6.78533 3.29067 7.196 3.496C7.60667 3.692 7.938 3.972 8.19 4.336C8.45133 4.7 8.61 5.106 8.666 5.554H7.098C7.014 5.26467 6.85533 5.036 6.622 4.868C6.398 4.7 6.12733 4.616 5.81 4.616C5.53933 4.616 5.292 4.68133 5.068 4.812C4.844 4.93333 4.67133 5.11067 4.55 5.344C4.42867 5.568 4.368 5.82 4.368 6.1C4.368 6.38 4.42867 6.632 4.55 6.856C4.67133 7.08 4.844 7.25733 5.068 7.388C5.292 7.51867 5.53933 7.584 5.81 7.584C6.12733 7.584 6.398 7.5 6.622 7.332C6.85533 7.15467 7.014 6.926 7.098 6.646H8.666C8.61 7.094 8.45133 7.5 8.19 7.864C7.938 8.21867 7.60667 8.49867 7.196 8.704C6.78533 8.90933 6.32333 9.012 5.81 9.012ZM18.9324 1.2H21.8584L25.5684 11H23.1744L22.4464 8.942H18.2884L17.5604 11H15.2224L18.9324 1.2ZM21.8304 7.15L20.4024 3.132H20.3184L18.8904 7.15H21.8304ZM27.1845 1.2H29.4245V5.036H33.6805V1.2H35.9205V11H33.6805V7.164H29.4245V11H27.1845V1.2ZM38.6689 1.2H40.8949V5.036H42.3649L44.9969 1.2H47.4609L44.2409 5.918L47.6989 11H44.9829L42.3509 7.164H40.8949V11H38.6689V1.2ZM53.3748 11.21C52.4041 11.21 51.5268 10.9907 50.7428 10.552C49.9588 10.104 49.3428 9.49267 48.8948 8.718C48.4561 7.934 48.2368 7.06133 48.2368 6.1C48.2368 5.13867 48.4561 4.27067 48.8948 3.496C49.3428 2.712 49.9588 2.10067 50.7428 1.662C51.5268 1.214 52.4041 0.99 53.3748 0.99C54.3454 0.99 55.2228 1.214 56.0068 1.662C56.7908 2.10067 57.4021 2.712 57.8408 3.496C58.2888 4.27067 58.5128 5.13867 58.5128 6.1C58.5128 7.06133 58.2888 7.934 57.8408 8.718C57.4021 9.49267 56.7908 10.104 56.0068 10.552C55.2228 10.9907 54.3454 11.21 53.3748 11.21ZM53.3748 9.068C53.9161 9.068 54.4014 8.942 54.8308 8.69C55.2694 8.42867 55.6101 8.074 55.8528 7.626C56.1048 7.16867 56.2308 6.66 56.2308 6.1C56.2308 5.54 56.1048 5.036 55.8528 4.588C55.6101 4.13067 55.2694 3.776 54.8308 3.524C54.4014 3.26267 53.9161 3.132 53.3748 3.132C52.8334 3.132 52.3434 3.26267 51.9048 3.524C51.4754 3.776 51.1348 4.13067 50.8828 4.588C50.6401 5.036 50.5188 5.54 50.5188 6.1C50.5188 6.66 50.6401 7.16867 50.8828 7.626C51.1348 8.074 51.4754 8.42867 51.9048 8.69C52.3434 8.942 52.8334 9.068 53.3748 9.068ZM60.5712 1.2H64.4772C65.6812 1.2 66.6286 1.48467 67.3192 2.054C68.0099 2.614 68.3552 3.39333 68.3552 4.392C68.3552 5.38133 68.0099 6.16067 67.3192 6.73C66.6286 7.29933 65.6812 7.584 64.4772 7.584H62.7832V11H60.5712V1.2ZM64.5052 5.806C64.9906 5.806 65.3779 5.68467 65.6672 5.442C65.9659 5.19933 66.1152 4.87267 66.1152 4.462C66.1152 4.05133 65.9706 3.72467 65.6812 3.482C65.3919 3.23933 64.9999 3.118 64.5052 3.118H62.7832V5.806H64.5052Z" fill="#808080"/>
</svg>
