<svg width="22" height="22" viewBox="0 0 22 22" fill="none" xmlns="http://www.w3.org/2000/svg">
<path d="M0.5 21.5L2.0067 15.9027C0.791585 13.7223 0.40553 11.1779 0.919379 8.73645C1.43323 6.29502 2.81251 4.1203 4.80413 2.61136C6.79576 1.10242 9.26612 0.360477 11.7619 0.521677C14.2577 0.682877 16.6115 1.73641 18.3914 3.48894C20.1713 5.24148 21.2579 7.57547 21.4518 10.0626C21.6457 12.5498 20.9338 15.0232 19.447 17.0291C17.9601 19.0351 15.7978 20.4389 13.357 20.983C10.9162 21.527 8.36056 21.1749 6.15903 19.9912L0.5 21.5ZM6.4319 17.8967L6.78188 18.1038C8.3765 19.0465 10.239 19.4366 12.0791 19.2133C13.9192 18.9901 15.6336 18.1659 16.9551 16.8692C18.2766 15.5726 19.1309 13.8764 19.385 12.0449C19.6391 10.2133 19.2786 8.34943 18.3598 6.74359C17.441 5.13774 16.0154 3.88018 14.3052 3.16686C12.595 2.45354 10.6963 2.32455 8.90493 2.79997C7.11357 3.27539 5.5302 4.32853 4.40155 5.79527C3.27291 7.262 2.66239 9.05995 2.66514 10.9089C2.66364 12.442 3.08872 13.9454 3.89305 15.2518L4.11253 15.6128L3.2702 18.7368L6.4319 17.8967Z" fill="white"/>
<path fill-rule="evenodd" clip-rule="evenodd" d="M14.9262 12.3462C14.721 12.1811 14.4808 12.0649 14.2238 12.0065C13.9668 11.948 13.6999 11.9489 13.4432 12.0089C13.0577 12.1687 12.8085 12.7722 12.5594 13.0739C12.5068 13.1463 12.4296 13.197 12.3423 13.2166C12.2549 13.2362 12.1634 13.2233 12.0848 13.1804C10.6732 12.629 9.49002 11.6177 8.72738 10.3108C8.66233 10.2292 8.63154 10.1257 8.6415 10.0219C8.65146 9.91819 8.70138 9.82235 8.78076 9.75459C9.05864 9.48021 9.26266 9.14036 9.37395 8.76649C9.39867 8.35409 9.30395 7.94331 9.10109 7.58313C8.94426 7.07816 8.64579 6.62852 8.24096 6.28734C8.03216 6.19367 7.80064 6.16226 7.57434 6.19691C7.34804 6.23156 7.13663 6.33078 6.9656 6.4826C6.66869 6.73811 6.43302 7.0568 6.27595 7.4152C6.11888 7.7736 6.04441 8.16257 6.05802 8.55348C6.05894 8.773 6.08683 8.99158 6.14107 9.20433C6.27881 9.71549 6.49064 10.2038 6.76985 10.6539C6.9713 10.9987 7.19109 11.3325 7.42829 11.6539C8.19917 12.7094 9.16818 13.6057 10.2815 14.2928C10.8402 14.642 11.4373 14.9259 12.0611 15.1389C12.7091 15.4319 13.4245 15.5443 14.1313 15.4643C14.5341 15.4035 14.9157 15.2449 15.2426 15.0024C15.5694 14.76 15.8315 14.4411 16.0058 14.0739C16.1082 13.852 16.1393 13.604 16.0948 13.3638C15.988 12.8728 15.3296 12.5828 14.9262 12.3462Z" fill="white"/>
</svg>
